<?xml version="1.0" encoding="UTF-8" standalone="no"?>
<!-- Generator: Adobe Illustrator 13.0.2, SVG Export Plug-In . SVG Version: 6.00 Build 14948)  -->

<svg
   xmlns:dc="http://purl.org/dc/elements/1.1/"
   xmlns:cc="http://creativecommons.org/ns#"
   xmlns:rdf="http://www.w3.org/1999/02/22-rdf-syntax-ns#"
   xmlns:svg="http://www.w3.org/2000/svg"
   xmlns="http://www.w3.org/2000/svg"
   xmlns:sodipodi="http://sodipodi.sourceforge.net/DTD/sodipodi-0.dtd"
   xmlns:inkscape="http://www.inkscape.org/namespaces/inkscape"
   id="Layer_1"
   enable-background="new 0 0 353.209 182.186"
   xml:space="preserve"
   viewBox="0 0 350 350"
   version="1.1"
   y="0px"
   x="0px"
   inkscape:version="0.48.4 r9939"
   width="100%"
   height="100%"
   sodipodi:docname="favicon1.svg"
   inkscape:export-filename="/home/thewizardpp/projects/web/wizard-diary/images/favicon.png"
   inkscape:export-xdpi="8.2285719"
   inkscape:export-ydpi="8.2285719"><defs
     id="defs37" /><sodipodi:namedview
     pagecolor="#ffffff"
     bordercolor="#666666"
     borderopacity="1"
     objecttolerance="10"
     gridtolerance="10"
     guidetolerance="10"
     inkscape:pageopacity="0"
     inkscape:pageshadow="2"
     inkscape:window-width="1152"
     inkscape:window-height="844"
     id="namedview35"
     showgrid="false"
     inkscape:zoom="1.2953794"
     inkscape:cx="197.50221"
     inkscape:cy="163.90807"
     inkscape:window-x="-2"
     inkscape:window-y="93"
     inkscape:window-maximized="1"
     inkscape:current-layer="layer2" /><metadata
     id="metadata33"><rdf:RDF><cc:Work><dc:format>image/svg+xml</dc:format><dc:type
           rdf:resource="http://purl.org/dc/dcmitype/StillImage" /><cc:license
           rdf:resource="http://creativecommons.org/licenses/publicdomain/" /><dc:publisher><cc:Agent
             rdf:about="http://openclipart.org/"><dc:title>Openclipart</dc:title></cc:Agent></dc:publisher><dc:title>open book</dc:title><dc:date>2007-10-30T01:35:20</dc:date><dc:description>Open book. Black and white drawing.</dc:description><dc:source>https://openclipart.org/detail/7555/open-book-by-johnny_automatic</dc:source><dc:creator><cc:Agent><dc:title>johnny_automatic</dc:title></cc:Agent></dc:creator><dc:subject><rdf:Bag><rdf:li>black and white</rdf:li><rdf:li>book</rdf:li><rdf:li>reading</rdf:li></rdf:Bag></dc:subject></cc:Work><cc:License
         rdf:about="http://creativecommons.org/licenses/publicdomain/"><cc:permits
           rdf:resource="http://creativecommons.org/ns#Reproduction" /><cc:permits
           rdf:resource="http://creativecommons.org/ns#Distribution" /><cc:permits
           rdf:resource="http://creativecommons.org/ns#DerivativeWorks" /></cc:License></rdf:RDF></metadata><g
     inkscape:groupmode="layer"
     id="layer2"
     inkscape:label="layer"><path
       style="fill:#ffffff;fill-opacity:1;stroke:none"
       d="m 71.395715,338.88964 114.632375,-85.70135 49.12817,-22.38061 106.44435,-25.65582 -13.10084,-50.2199 0,-15.83018 -102.62328,-137.5588623 -6.55042,2.18347 -9.27976,2.18348 -19.1054,0.54587 -24.01821,-0.54587 -14.73845,5.4586793 -13.64672,9.82563 -8.73389,13.646716 -6.55042,15.284317 -9.82564,-12.009106 -13.10084,-8.733896 -13.100835,-2.183474 -19.65127,8.188027 -20.19713,18.559529 -34.38972,42.031872 -4.3669504,5.458688 -2.72934,36.02732 z"
       id="path3062"
       inkscape:connector-curvature="0" /><g
       id="g3"
       transform="matrix(0.99091373,0,0,1.9220662,-0.00336128,-0.48198206)"><path
         d="m 330.08,70.199 c 3.078,-0.745 1.922,2.744 5,2 1.64,2.14 -2.549,4.854 -1,9.999 l -1.833,-0.5 -1.167,1.5 c -2.235,-0.432 -0.405,-4.929 -1,-7 l 0.444,-2.723 -2.444,-1.276 v -1 l 1.5,0.5 0.5,-1.5 z"
         id="path5"
         inkscape:connector-curvature="0" /><path
         d="m 332.92,83.698 1.167,-1.5 c 6.869,4.129 12.841,9.155 18.997,13.998 0.697,5.029 -1.696,6.97 -1,11.998 -30.646,2.781 -58.67,6.19 -87.988,9.999 -9.23,1.199 -19.859,1.675 -27.996,3.999 -12.092,3.456 -16.467,12.16 -30.996,13.999 -7.099,0.897 -12.355,-1.795 -19.998,-1 -9.243,0.961 -20.285,7.338 -29.997,10.998 C 126.205,157.085 96.018,168.953 70.12,182.185 62.344,174.209 57.884,163.682 52.122,154.188 35.432,126.686 17.114,98.332 0.129,70.2 c -0.895,-3.229 3.261,-1.405 4,-3 l 1.5,0.5 1.5,-0.5 c 20.867,34.459 42.363,68.289 63.992,101.99 0.595,-2.07 -1.236,-6.567 1,-6.999 l 1.167,1.5 1.833,-0.5 c 1.327,4.385 -1.89,9.365 -1,9.999 36.686,-17.974 64.597,-44.724 119.98,-43.995 -0.848,-11.512 5.246,-16.084 8.998,-22.997 -1.582,-0.083 -3.812,0.481 -3.998,-1 l 0.5,-1.499 -0.5,-1.5 c 0.851,0.185 0.942,-0.39 1,-1 l 1.355,-1.214 -0.355,-1.786 c 3.864,0.136 3.942,4.057 6.998,5 l 1.215,1.356 1.785,-0.356 c -0.668,4.331 -4.627,5.371 -5,9.998 4.711,-0.289 7.08,-2.919 12.998,-1.999 3.942,1.058 3.812,6.188 6,8.998 19.527,-24.133 67.58,-19.74 109.99,-20.997 -1.188,-5.811 -4.154,-9.844 -4,-16.997 l 1.85,0.495 z"
         id="path7"
         inkscape:connector-curvature="0" /><path
         d="m 5.958,65.7 -1.833,0.5 c 0.083,-1.583 -0.481,-3.814 1,-4 l 1.167,1.5 1.833,-0.5 c -0.083,1.583 0.481,3.812 -1,4 L 5.958,65.7 z"
         id="path9"
         inkscape:connector-curvature="0" /><g
         id="g11"
         style="fill:none;stroke:#000000;stroke-linecap:round"><path
           d="m 332.25,81.698 c 0.222,0.667 0.444,1.333 0.666,2"
           id="path13"
           inkscape:connector-curvature="0"
           style="stroke-width:3.16190004" /><path
           d="m 5.625,67.7 c 0.04,-0.667 0.184,-1.333 0.333,-2"
           id="path15"
           inkscape:connector-curvature="0"
           style="stroke-width:3.08179998" /><path
           d="M 6.292,63.7 C 7.136,58.762 7.877,52.432 13.024,50.1"
           id="path17"
           inkscape:connector-curvature="0"
           style="stroke-width:3.33870006" /><path
           d="M 13.024,50.102 C 44.302,29.346 88.078,-3.624 124.474,26.99"
           id="path19"
           inkscape:connector-curvature="0"
           style="stroke-width:2.28069997" /><path
           d="M 124.47,26.99 C 146,-8.966 193.06,8.878 227.44,1.248 261.25,25.011 296.54,47.15 329.58,71.7"
           id="path21"
           inkscape:connector-curvature="0"
           style="stroke-width:2.32800007" /><path
           d="M 209.31,104.55 C 236.872,66.875 290.224,80.436 330.53,73.475"
           id="path23"
           inkscape:connector-curvature="0"
           style="stroke-width:3.98990011" /><path
           d="m 124.47,26.99 c 26.053,23.891 50.821,49.292 76.99,72.99"
           id="path25"
           inkscape:connector-curvature="0"
           style="stroke-width:3.0381999" /><path
           d="m 13.024,50.102 c 22.017,30.93 40.332,64.812 62.092,96.088"
           id="path27"
           inkscape:connector-curvature="0"
           style="stroke-width:2.61560011" /><path
           d="m 75.117,146.19 c 39.787,-18.125 77.92,-48.677 124.48,-42.494"
           id="path29"
           inkscape:connector-curvature="0"
           style="stroke-width:2.98049998" /><path
           d="m 75.117,146.19 c -0.556,5.836 -0.93,11.693 -1.833,17.498"
           id="path31"
           inkscape:connector-curvature="0"
           style="stroke-width:3.72819996" /></g></g></g></svg>